<?xml version="1.0" encoding="utf-8"?>
<!-- Generator: Adobe Illustrator 24.2.0, SVG Export Plug-In . SVG Version: 6.00 Build 0)  -->
<svg version="1.1" id="Layer_1" xmlns="http://www.w3.org/2000/svg" xmlns:xlink="http://www.w3.org/1999/xlink" 
	 viewBox="0 0 841.89 595.28" style="enable-background:new 0 0 841.89 595.28;" xml:space="preserve">
<style type="text/css">
	.st0{clip-path:url(#SVGID_2_);fill:#3C3C3C;}
</style>
<g>
	<defs>
		<rect id="SVGID_1_" x="208.93" y="236.73" width="451.78" height="84.34"/>
	</defs>
	<clipPath id="SVGID_2_">
		<use xlink:href="#SVGID_1_"  style="overflow:visible;"/>
	</clipPath>
	<path class="st0" d="M393.21,278.93H381.4v42.14h-17.52v-42.14h-8.32v-14.89h8.32v-9.63c0-6.89,3.27-17.68,17.68-17.68l12.98,0.06
		v14.45h-9.42c-1.54,0-3.71,0.77-3.71,4.06v8.76h13.35L393.21,278.93z"/>
	<path class="st0" d="M609.56,293.33v-32.1l24.35,16.05L609.56,293.33z M660.71,261.82c0-7.04-5.7-12.75-12.74-12.75h-59.76
		c-7.04,0-12.74,5.71-12.74,12.75V296c0,7.04,5.7,12.74,12.74,12.74h59.76c7.04,0,12.74-5.7,12.74-12.74V261.82z"/>
	<path class="st0" d="M296.95,251.61c-3.24,1.43-6.72,2.41-10.37,2.84c3.72-2.23,6.59-5.78,7.94-9.99
		c-3.49,2.07-7.36,3.57-11.47,4.37c-3.3-3.5-7.99-5.7-13.19-5.7c-9.97,0-18.06,8.09-18.06,18.06c0,1.42,0.16,2.79,0.47,4.12
		c-15.01-0.76-28.31-7.94-37.22-18.87c-1.56,2.66-2.44,5.77-2.44,9.08c0,6.26,3.19,11.79,8.03,15.03c-2.96-0.09-5.74-0.9-8.18-2.26
		c0,0.07,0,0.15,0,0.23c0,8.75,6.22,16.05,14.48,17.7c-1.51,0.42-3.11,0.64-4.76,0.64c-1.16,0-2.29-0.11-3.4-0.32
		c2.3,7.17,8.97,12.39,16.87,12.54c-6.18,4.85-13.96,7.73-22.42,7.73c-1.46,0-2.9-0.08-4.31-0.25c7.99,5.12,17.48,8.11,27.68,8.11
		c33.22,0,51.38-27.51,51.38-51.38c0-0.78-0.02-1.56-0.05-2.33C291.47,258.41,294.53,255.24,296.95,251.61"/>
	<path class="st0" d="M520.33,253c0,1.08-0.72,1.8-1.8,1.8h-7.23c-1.08,0-1.8-0.72-1.8-1.8v-7.23c0-1.08,0.72-1.8,1.8-1.8h7.23
		c1.08,0,1.8,0.72,1.8,1.8V253z M464.32,301.78c-1.08,0-1.8-0.72-1.8-1.8v-30.72h7.59c-0.37,1.1-0.37,2.55-0.37,3.62
		c0,11.93,9.76,21.69,21.68,21.69c11.93,0,21.69-9.76,21.69-21.69c0-1.07,0-2.52-0.37-3.62h7.59v30.72c0,1.08-0.72,1.8-1.8,1.8
		H464.32z M491.42,258.42c7.97,0,14.46,6.49,14.46,14.45c0,7.96-6.49,14.46-14.46,14.46c-7.95,0-14.45-6.5-14.45-14.46
		C476.97,264.91,483.47,258.42,491.42,258.42 M520.33,236.74h-57.81c-3.98,0-7.23,3.24-7.23,7.23v57.81c0,3.98,3.25,7.23,7.23,7.23
		h57.81c3.99,0,7.23-3.25,7.23-7.23v-57.81C527.56,239.98,524.32,236.74,520.33,236.74"/>
</g>
</svg>
