<?xml version="1.0" encoding="UTF-8"?><svg id="Layer_1" xmlns="http://www.w3.org/2000/svg" viewBox="0 0 192.53 148.02"><defs><style>.cls-1{fill:#f6f6f6;}</style></defs><path class="cls-1" d="m56.25,49.11c1.37,1.3,2.69,2.62,4.09,3.85.28.25.87.23,1.31.2,1.98-.15,3.96-.48,5.94-.5,1.93-.02,3.15,1.23,3.24,2.94.1,1.81-1.07,3.16-3.03,3.37-1.06.12-2.13.04-3.19.1-1.13.06-1.81.73-1.65,1.82.16,1.15.97,1.73,2.18,1.41,1.02-.28,2.02-.65,3.04-.95,5.97-1.76,11.27,2.68,10.59,8.83-.06.54.1,1.25.44,1.65,1.12,1.34,2.36,2.57,3.56,3.85,1.73-1.78,3.72-6.32,3.63-8.29-.02-.37-.4-.87-.75-1.05-7.36-3.9-9.73-8.89-8.01-16.77.1-.44-.18-1.22-.55-1.48-5.54-3.98-15.29-3.56-20.84,1.02m-17.66,44.21h63.91v-6.28c-7.11,0-14.05-.03-21,.03-1.01.01-2.1.27-3.03.7-6.85,3.12-13.82,3.46-20.74.52-2.28-.97-4.48-1.31-6.88-1.27-4.05.07-8.1.02-12.26.02v6.28Zm39.92-13.28c-1.13-1.04-2.08-2.05-3.17-2.87-.49-.36-1.28-.48-1.92-.45-1.99.08-3.97.43-5.96.4-1.8-.03-3.02-1.53-2.97-3.24.04-1.71,1.3-2.97,3.14-3.08.94-.06,1.88,0,2.82-.04,1.25-.05,2.12-.65,1.92-1.98-.21-1.35-1.26-1.6-2.45-1.27-1.2.34-2.37.82-3.59,1.09-5.54,1.22-10.46-3.32-9.78-8.96.06-.46.13-1.1-.12-1.38-1.46-1.66-3-3.25-4.57-4.9-5.77,8.04-4.64,18.68,2.39,25.3,6.6,6.2,17.51,6.94,24.26,1.38m88.48-15.58h19.04V16.58h-19.04v47.88h0Zm-134.93,22.9c-.33-.17-.44-.27-.54-.27-7.27-.02-14.54-.07-21.8-.02-2.09.02-3.26,1.36-3.29,3.55-.04,2.82-.01,5.64-.01,8.46v7.09h128.28c0-5.5.06-10.87-.03-16.25-.03-1.7-1.33-2.84-3.15-2.85-7.33-.04-14.66.01-21.99.04-.1,0-.2.13-.45.29,0,1.71.01,3.52,0,5.32-.02,4.61-2.46,7.13-7.04,7.14-20.99.02-41.98.02-62.96,0-4.44-.01-6.95-2.57-7.01-7.03-.03-1.86,0-3.72,0-5.47m-25.58,54.11h128.13v-28.63H6.48v28.63ZM81.76,43.29c2.62-2.06,5.49-3.32,8.73-3.22,2.49.08,4.99.44,7.45.89,4.42.82,8.69,1.39,12.73-1.52,1.68-1.21,3.64-.46,4.5,1.15.91,1.7.27,3.52-1.67,4.54-1.83.96-3.65,1.96-5.56,2.73-.99.4-2.17.57-3.23.47-2.74-.26-5.46-.74-8.19-1.13-1.61-.23-3.23-.45-4.84-.67-3.76-.51-7.33,1.98-8.13,5.68-.79,3.69,1.43,7.48,5.18,8.42,5.04,1.25,10.12,2.36,15.21,3.39,1.21.24,2.63.13,3.81-.25,10.47-3.41,20.92-6.86,31.34-10.45,3.24-1.11,6.47-1.76,9.91-1.62,3.74.15,7.49.03,11.34.03V16.41h-2.12c-5.26,0-10.53.04-15.79-.03-1.22-.02-2.51-.22-3.66-.63-7.01-2.49-14-5.05-20.99-7.61-7.67-2.8-14.98-2.13-21.98,2.1-20.47,12.37-40.97,24.69-61.4,37.11-1.06.64-1.99,1.96-2.35,3.15-.77,2.58-.05,4.99,2.01,6.82,1.98,1.75,4.33,2.34,6.81,1.36.84-.33,1.74-1.23,2.04-2.07,3.15-8.61,9.01-14.36,17.85-16.82,7.42-2.04,14.4-.66,21,3.5M0,88.5c1.29-4.04,3.69-6.93,8.08-7.7.86-.15,1.74-.16,2.62-.16,11.41-.01,22.81-.01,34.22-.01h2c-1.27-2.56-2.71-4.91-3.63-7.45-.9-2.5-1.27-5.19-1.88-7.87-4.98.85-9.39-.47-12.85-4.45-4.1-4.72-4.23-11.94-.32-16.81.54-.66,1.25-1.24,1.98-1.68,20.84-12.6,41.69-25.2,62.55-37.76,8.46-5.09,17.4-5.96,26.7-2.64,6.78,2.41,13.52,4.93,20.3,7.32,1.27.45,2.67.71,4.01.71,14.73.05,29.45.03,44.18.03,3.61,0,4.57.96,4.57,4.57v51.89c0,3.58-.96,4.54-4.59,4.54-7.71.01-15.42.01-23.13,0-3.39-.01-4.33-.98-4.34-4.4-.01-2.74,0-5.48,0-8.47-2.82,0-5.44.14-8.04-.03-5.02-.32-9.75.63-14.49,2.32-9.36,3.35-18.85,6.34-28.27,9.54-2.39.81-4.74.96-7.19.35-3.1-.76-6.22-1.41-9.13-2.07-1.72,4.1-3.42,8.14-5.18,12.34h42.28c6.87,0,10.73,3.83,10.74,10.7.02,17.42.01,34.84,0,52.27,0,3.5-.93,4.41-4.49,4.41-44.06,0-88.11-.01-132.17.03-1.9,0-3.4-.44-4.5-2.01v-57.51h-.03Z"/><rect class="cls-1" x="173.4" y="51.86" width="6.17" height="6.18"/></svg>