<?xml version="1.0" encoding="UTF-8"?><svg id="Layer_1" xmlns="http://www.w3.org/2000/svg" xmlns:xlink="http://www.w3.org/1999/xlink" viewBox="0 0 78.76 14.7"><defs><style>.cls-1,.cls-2{fill:none;}.cls-3{fill:#fff;}.cls-2{clip-path:url(#clippath);}</style><clipPath id="clippath"><rect class="cls-1" y="0" width="78.76" height="14.7"/></clipPath></defs><g class="cls-2"><path class="cls-3" d="m32.13,7.36h-2.06v7.35h-3.05v-7.35h-1.45v-2.59h1.45v-1.68c0-1.2.57-3.08,3.08-3.08h2.26v2.53h-1.64c-.27,0-.65.14-.65.71v1.53h2.33l-.27,2.59Z"/><path class="cls-3" d="m69.84,9.87v-5.6l4.24,2.8-4.24,2.8Zm8.92-5.49c0-1.23-.99-2.22-2.22-2.22h-10.42c-1.23,0-2.22.99-2.22,2.22v5.96c0,1.23.99,2.22,2.22,2.22h10.42c1.23,0,2.22-1,2.22-2.22v-5.96Z"/><path class="cls-3" d="m15.34,2.59c-.56.25-1.17.42-1.81.49.65-.39,1.15-1.01,1.38-1.74-.61.36-1.28.62-2,.76-.57-.61-1.39-.99-2.3-.99-1.74,0-3.15,1.41-3.15,3.15,0,.25.03.49.08.72-2.62-.13-4.94-1.38-6.49-3.29-.27.46-.43,1.01-.43,1.58,0,1.09.56,2.06,1.4,2.62-.52-.02-1-.16-1.43-.39v.04c0,1.52,1.09,2.8,2.52,3.09-.26.07-.54.11-.83.11-.2,0-.4-.02-.59-.06.4,1.25,1.56,2.16,2.94,2.19-1.08.84-2.43,1.35-3.91,1.35-.25,0-.51-.01-.75-.04,1.39.89,3.05,1.41,4.82,1.41,5.79,0,8.96-4.8,8.96-8.96,0-.14,0-.27,0-.41.62-.44,1.15-1,1.57-1.63"/><path class="cls-3" d="m54.29,2.84c0,.19-.13.31-.31.31h-1.26c-.19,0-.31-.13-.31-.31v-1.26c0-.19.13-.31.31-.31h1.26c.19,0,.31.13.31.31v1.26Zm-9.76,8.5c-.19,0-.31-.13-.31-.31v-5.36h1.32c-.06.19-.06.44-.06.63,0,2.08,1.7,3.78,3.78,3.78s3.78-1.7,3.78-3.78c0-.19,0-.44-.06-.63h1.32v5.36c0,.19-.13.31-.31.31h-9.45Zm4.72-7.56c1.39,0,2.52,1.13,2.52,2.52s-1.13,2.52-2.52,2.52-2.52-1.13-2.52-2.52,1.13-2.52,2.52-2.52M54.29,0h-10.08c-.69,0-1.26.57-1.26,1.26v10.08c0,.7.57,1.26,1.26,1.26h10.08c.69,0,1.26-.57,1.26-1.26V1.26C55.55.57,54.98,0,54.29,0"/></g></svg>