<?xml version="1.0" encoding="UTF-8"?><svg id="Layer_1" xmlns="http://www.w3.org/2000/svg" viewBox="0 0 149.29 148.02"><defs><style>.cls-1{fill:#f6f6f6;}</style></defs><path class="cls-1" d="m80.77,26.16c1.06,0,1.95-.8,2.09-1.85.57-4.34-.26-4.68-5.33-4.81-2.03-.05-4.06-.1-6.1-.07-4.7.07-5.81,1-4.8,5.12.23.94,1.08,1.61,2.04,1.61,0,0,12.1,0,12.1,0Zm-6.09,117.57h65.2c4.83,0,5.1-.24,5.1-5.09,0-34.34-.01-68.68-.02-103.02,0-4.52-.38-4.89-4.97-4.89-43.59-.01-87.17,0-130.76.01-4.6,0-4.87.29-4.87,4.96v103.02c0,4.86.16,5.02,5.12,5.03,21.73-.01,43.47-.01,65.2-.02m-15-117.3c1.17,0,2.11-.96,2.1-2.12-.03-3.61.65-6.64,3.61-9.16,1-.85.39-3.64.43-5.54.05-2.64-.18-5.31.12-7.92.03-.25.13-.49.27-.73.79-1.3,2.76-1.27,3.53.04.14.25.24.5.25.75.19,3.51.13,7.04.1,10.75-.01,1.16.94,2.12,2.1,2.12h4.82c1.17,0,2.11-.96,2.1-2.13-.04-3.24-.12-6.47.12-9.67v-.04c.21-2.35,3.71-2.44,4.15-.12.01.04.02.08.02.13.34,2.35.11,4.79.07,7.19-.06,2.87.15,5.3,2.4,7.81,1.36,1.52,1.51,4.12,1.97,6.86.17,1.02,1.04,1.77,2.07,1.77h2c16.21,0,32.42-.01,48.63,0,6.46,0,8.74,2.23,8.74,8.6.01,34.95.01,69.89,0,104.83,0,5.82-2.25,8.12-8.05,8.13-44.31.03-88.62.04-132.93.04C2.24,148.02.02,145.8.01,139.77,0,104.7,0,69.64.02,34.58.02,28.68,2.42,26.39,8.42,26.39c16.21,0,32.42.02,48.63.03.84.01,1.68.01,2.63.01"/><path class="cls-1" d="m15.96,53.57v78.57h75.87c-.08-.81-.06-1.42-.22-1.98-6.88-24.73-13.8-49.44-20.6-74.19-.67-2.42-2.12-2.43-4.01-2.43-12.49.03-24.97.02-37.45.02-4.42,0-8.85,0-13.59,0m59.4.35c.05.89,0,1.25.09,1.58,6.88,24.73,13.8,49.45,20.63,74.2.56,2.05,1.59,2.59,3.56,2.57,10.08-.08,20.17-.14,30.25,0,2.81.04,3.69-.78,3.68-3.65-.1-23.65-.1-47.29.03-70.94.02-3.15-.89-4.09-4.06-4.06-16.92.14-33.85.06-50.77.07-1.08,0-2.14.14-3.41.23m-.76-4.62c18.73,0,37.46,0,56.2,0,5.76,0,7.08,1.29,7.08,6.87.01,24.62.01,49.23,0,73.85,0,5.14-1.44,6.58-6.66,6.58-37.71,0-75.41,0-113.11,0-5.34,0-6.73-1.44-6.74-6.9-.01-24.74-.01-49.47,0-74.21,0-4.65,1.56-6.18,6.31-6.19,18.98,0,37.95,0,56.92,0"/><path class="cls-1" d="m74.88,42.14c-5.76,0-11.51.12-17.26-.09-.53-.02-1.05-.24-1.56-.54-1.06-.62-1.1-2.15-.08-2.84.57-.39,1.13-.68,1.71-.69,11.27-.17,22.54-.17,33.81,0,.55,0,1.11.26,1.66.6,1.06.66,1.04,2.25-.05,2.88-.55.32-1.11.55-1.67.58-5.51.23-11.03.09-16.54.09v.02h-.02Z"/><path class="cls-1" d="m31.63,42.14c-5.76,0-11.51.12-17.26-.09-.53-.02-1.05-.24-1.56-.54-1.06-.62-1.1-2.15-.08-2.84.57-.39,1.13-.68,1.71-.69,11.27-.17,22.54-.17,33.81,0,.55,0,1.11.26,1.66.6,1.06.66,1.04,2.25-.05,2.88-.55.32-1.11.55-1.67.58-5.51.23-11.03.09-16.54.09v.02h-.02Z"/><path class="cls-1" d="m118.27,42.14c-5.76,0-11.51.12-17.26-.09-.53-.02-1.05-.24-1.56-.54-1.06-.62-1.1-2.15-.08-2.84.57-.39,1.13-.68,1.71-.69,11.27-.17,22.54-.17,33.81,0,.55,0,1.11.26,1.66.6,1.06.66,1.04,2.25-.05,2.88-.55.32-1.11.55-1.67.58-5.51.23-11.03.09-16.54.09v.02h-.02Z"/><path class="cls-1" d="m109.48,88.92c3.83,0,7.68-.17,11.49.1.16,0,.32.04.47.09,1.99.59,2.18,3.46.22,4.13-.16.06-.32.09-.49.09-7.9.19-15.81.19-23.71-.02-.16,0-.33-.03-.49-.09-1.96-.67-1.78-3.56.21-4.13.15-.04.3-.07.45-.08,3.93-.26,7.89-.09,11.85-.09"/><path class="cls-1" d="m113.39,102.15c2.75,0,5.52-.22,8.23.11.3.04.59.18.88.38,1.4.99,1.29,3.22-.28,3.9-.16.07-.32.11-.48.12-5.61.21-11.23.23-16.83.02-.29,0-.57-.14-.85-.34-1.31-.93-1.18-2.97.21-3.77.29-.17.59-.29.9-.32,2.71-.31,5.48-.1,8.23-.1h0s-.01,0-.01,0Z"/><path class="cls-1" d="m54.69,109.54h-12.79c.2,1.79-.26,4.31.79,5.51,2.01,2.3,8.33,2.48,10.66.25,1.2-1.14.94-3.79,1.34-5.76m1.89-28.12c.21.38.42.76.63,1.14,1.67-.87,4.07-1.37,4.78-2.73.61-1.17-.32-3.62-1.27-5.03-2.84-4.21-7.15-5.74-12.11-5.82-6.97-.12-14.86,4.52-14.37,12.99,3.25-.78,3.2-.83,7.82-5.74.69-.73,2.2-.7,3.34-1.01.14,1.17.61,2.43.33,3.49-.33,1.2-1.33,2.21-2.05,3.33,4.11,1.5,6.48.27,9.66-4.43.63-.93,2.17-1.25,3.29-1.85.28,1.26.71,2.5.8,3.77.02.59-.56,1.25-.85,1.89m4.12,5.32h-25.29c-.26,7.82,3.28,13.5,9.04,17.64,1.63,1.18,5.05,1.2,7.03.33,5.85-2.55,10.14-11.62,9.22-17.97m-8.82-22.24c4.24.04,10.21,3,13.88,9.74.87,1.6,1.42,3.68,1.25,5.46-.41,4.25-1.01,8.54-2.18,12.63-.97,3.38-2.46,6.76-4.43,9.67-3.64,5.38-2.72,10.24,3.07,13.06,2.26,1.11,4.56,2.14,6.83,3.22,1.58.75,3.93,1.29,2.75,3.69-1.16,2.37-3.12.82-4.67.14-2.52-1.11-4.91-2.58-7.5-3.45-1.34-.45-3.26-.44-4.49.19-5.45,2.82-10.84,3.05-16.11-.03-1.96-1.14-3.41-1.03-5.26-.04-2.63,1.42-5.34,2.77-8.15,3.75-1.02.36-2.44-.4-3.68-.65.68-1.08,1.12-2.59,2.09-3.16,2.79-1.62,5.82-2.82,8.73-4.24,4-1.95,5.68-7.53,2.84-11.08-3.86-4.82-5.29-10.21-6.15-16.18-.53-3.64-1.85-6.98-.38-10.74,3.01-7.65,9.38-11.97,21.56-11.98"/></svg>